# Blender v2.74 (sub 0) OBJ File: 'shot.blend'
# www.blender.org
mtllib shot.mtl
o Cube
v 0.070453 -0.070453 -0.189305
v -0.070453 -0.070453 -0.189305
v 0.070453 0.070453 -0.189305
v -0.070453 0.070453 -0.189305
v -0.000000 -0.085520 -0.189305
v -0.000000 0.085519 -0.189305
v -0.000000 -0.000000 0.037694
v 0.085178 -0.000000 -0.189305
v -0.085179 -0.000000 -0.189305
v -0.000000 -0.000000 -1.252600
vt 0.383172 0.176028
vt 0.437758 0.172411
vt 0.437758 0.999847
vt 0.273695 0.176028
vt 0.219109 0.179644
vt 0.328280 0.999847
vt 0.054739 0.823972
vt 0.109325 0.000153
vt 0.000153 0.820356
vt 0.492770 0.000153
vt 0.438065 0.825779
vt 0.492770 0.825779
vt 0.109325 0.827589
vt 0.218802 0.827589
vt 0.164217 0.823972
vt 0.218802 0.000153
vt 0.109631 0.820356
vt 0.328587 0.179644
vt 0.152564 0.999847
vt 0.328280 0.172411
vt 0.262041 0.000153
vt 0.371519 0.000153
vt 0.043086 0.999847
vn 0.990800 0.000000 0.135300
vn 0.700900 -0.697900 0.147200
vn 0.000000 0.000000 -1.000000
vn -0.990800 0.000000 0.135300
vn -0.700900 0.697900 0.147200
vn 0.000000 -0.990700 0.135700
vn -0.700900 -0.697900 0.147200
vn 0.000000 0.990700 0.135700
vn 0.700900 0.697900 0.147200
vn 0.000000 0.000000 1.000000
usemtl Material
s 1
f 8/1/1 1/2/2 10/3/3
f 9/4/4 4/5/5 10/6/3
f 5/7/6 10/8/3 1/9/2
f 10/10/3 2/11/7 9/12/4
f 2/13/7 10/8/3 5/7/6
f 4/14/5 6/15/8 10/16/3
f 6/15/8 3/17/9 10/16/3
f 3/18/9 8/1/1 10/3/3
f 6/15/8 4/14/5 7/19/10
f 9/4/4 2/20/7 7/21/10
f 8/1/1 3/18/9 7/22/10
f 5/7/6 1/9/2 7/23/10
f 2/13/7 5/7/6 7/23/10
f 3/17/9 6/15/8 7/19/10
f 1/2/2 8/1/1 7/22/10
f 4/5/5 9/4/4 7/21/10
