# Blender v2.74 (sub 0) OBJ File: 'shot.blend'
# www.blender.org
mtllib shot.mtl
o Cube
v 0.070453 -0.070453 -0.189305
v -0.070453 -0.070453 -0.189305
v 0.070453 0.070453 -0.189305
v -0.070453 0.070453 -0.189305
v -0.000000 -0.085520 -0.189305
v -0.000000 0.085519 -0.189305
v -0.000000 -0.000000 0.037694
v 0.085178 -0.000000 -0.189305
v -0.085179 -0.000000 -0.189305
v -0.000000 -0.000000 -1.252600
vn 0.990800 0.000000 0.135300
vn 0.700900 -0.697900 0.147200
vn 0.000000 0.000000 -1.000000
vn -0.990800 0.000000 0.135300
vn -0.700900 0.697900 0.147200
vn 0.000000 -0.990700 0.135700
vn -0.700900 -0.697900 0.147200
vn 0.000000 0.990700 0.135700
vn 0.700900 0.697900 0.147200
vn 0.000000 0.000000 1.000000
usemtl Material
s 1
f 8//1 1//2 10//3
f 9//4 4//5 10//3
f 5//6 10//3 1//2
f 10//3 2//7 9//4
f 2//7 10//3 5//6
f 4//5 6//8 10//3
f 6//8 3//9 10//3
f 3//9 8//1 10//3
f 6//8 4//5 7//10
f 9//4 2//7 7//10
f 8//1 3//9 7//10
f 5//6 1//2 7//10
f 2//7 5//6 7//10
f 3//9 6//8 7//10
f 1//2 8//1 7//10
f 4//5 9//4 7//10
