# 3ds Max Wavefront OBJ Exporter v0.94b - (c)2007 guruware
# File Created: 23.09.2009 12:28:48

mtllib skyboxnight.mtl

#
# object skybox01
#

v  206.7842 205.3871 206.7581
v  245.7432 115.0428 245.7350
v  127.0528 125.6409 317.3994
v  116.5896 244.5018 245.7330
v  264.9702 -16.6890 264.9716
v  137.5886 -16.6901 341.5392
v  -15.0085 -16.6915 367.1854
v  -14.9726 136.2384 341.5370
v  -14.8657 263.8053 264.9671
v  206.7837 -238.7672 206.7557
v  116.5890 -277.8842 245.7302
v  127.0525 -159.0216 317.3979
v  245.7429 -148.4214 245.7336
v  -14.8664 -297.1917 264.9641
v  -14.9730 -169.6223 341.5353
v  -236.3542 -238.7753 206.7456
v  -275.4217 -148.4297 245.7222
v  -156.9311 -159.0255 317.3919
v  -146.2682 -277.8888 245.7243
v  -294.7023 -16.6974 264.9596
v  -167.5341 -16.6939 341.5331
v  -236.3535 205.3788 206.7482
v  -146.2675 244.4970 245.7272
v  -156.9308 125.6369 317.3935
v  -275.4214 115.0343 245.7238
v  -235.8078 205.3680 -235.8282
v  -274.8053 115.0204 -274.8069
v  -156.0785 125.6224 -346.4705
v  -145.5883 244.4861 -274.8022
v  -294.0537 -16.7129 -294.0454
v  -166.6286 -16.7097 -370.6123
v  -13.9445 -16.7040 -396.2569
v  -13.9800 136.2267 -370.6066
v  -14.0866 263.7960 -294.0353
v  -235.8084 -238.7858 -235.8311
v  -145.5890 -277.8993 -274.8056
v  -156.0788 -159.0398 -346.4724
v  -274.8056 -148.4435 -274.8087
v  -14.0873 -297.2006 -294.0388
v  -13.9804 -169.6338 -370.6086
v  207.4715 -238.7708 -235.8184
v  246.5778 -148.4245 -274.7933
v  128.0507 -159.0288 -346.4637
v  117.3607 -277.8902 -274.7980
v  265.8797 -16.6918 -294.0287
v  138.6681 -16.6974 -370.6029
v  207.4721 205.3832 -235.8158
v  117.3614 244.4954 -274.7947
v  128.0511 125.6335 -346.4620
v  246.5781 115.0396 -274.7917
v  318.1644 125.6417 -156.3510
v  246.3669 244.5010 -145.7910
v  342.3610 -16.6887 -166.9125
v  367.7911 -16.6877 -14.5260
v  342.1053 136.2420 -14.5258
v  265.4253 263.8081 -14.5270
v  246.3662 -277.8848 -145.7939
v  318.1641 -159.0208 -156.3526
v  265.4246 -297.1889 -14.5301
v  342.1049 -169.6188 -14.5274
v  317.6958 -159.0197 127.2966
v  245.9541 -277.8829 116.7329
v  341.8492 -16.6880 137.8593
v  245.9547 244.5031 116.7357
v  317.6961 125.6428 127.2981
v  -156.3179 316.4110 -156.3627
v  -274.9533 244.4848 -145.8049
v  -14.2636 340.6418 -166.9202
v  -14.4760 366.3851 -14.5335
v  -167.0808 340.6402 -14.5374
v  -294.3776 263.7932 -14.5411
v  127.7611 316.4197 -156.3552
v  138.1288 340.6484 -14.5298
v  127.3433 316.4234 127.2948
v  -14.6884 340.6469 137.8530
v  -275.2730 244.4914 116.7234
v  -156.6908 316.4169 127.2881
v  -347.0441 125.6287 127.2826
v  -371.2271 -16.7025 137.8427
v  -396.7440 -16.7078 -14.5455
v  -371.0579 136.2231 -14.5439
v  -275.2737 -277.8941 116.7202
v  -347.0445 -159.0335 127.2808
v  -294.3784 -297.2034 -14.5447
v  -371.0584 -169.6374 -14.5458
v  -346.7221 -159.0417 -156.3711
v  -274.9541 -277.9006 -145.8083
v  -370.8892 -16.7118 -166.9323
v  -346.7217 125.6205 -156.3692
v  127.7602 -349.8113 -156.3591
v  -14.2646 -374.0423 -166.9246
v  -14.4770 -399.7806 -14.5380
v  138.1279 -374.0359 -14.5339
v  -156.3188 -349.8197 -156.3669
v  -167.0819 -374.0438 -14.5418
v  -156.6917 -349.8141 127.2841
v  -14.6894 -374.0374 137.8489
v  127.3424 -349.8079 127.2911
# 98 vertices

vn -0.5772 -0.5759 -0.5789
vn -0.6612 -0.3512 -0.6630
vn -0.3459 -0.3452 -0.8725
vn -0.3523 -0.6605 -0.6631
vn -0.7062 0.0000 -0.7081
vn -0.3477 0.0000 -0.9376
vn 0.0001 0.0000 -1.0000
vn 0.0001 -0.3473 -0.9378
vn 0.0001 -0.7061 -0.7082
vn -0.5772 0.5759 -0.5789
vn -0.3523 0.6605 -0.6631
vn -0.3459 0.3452 -0.8725
vn -0.6612 0.3512 -0.6630
vn 0.0001 0.7060 -0.7082
vn 0.0001 0.3473 -0.9378
vn 0.5778 0.5764 -0.5779
vn 0.6620 0.3516 -0.6619
vn 0.3463 0.3454 -0.8722
vn 0.3526 0.6608 -0.6625
vn 0.7072 0.0000 -0.7070
vn 0.3481 0.0000 -0.9375
vn 0.5778 -0.5764 -0.5778
vn 0.3526 -0.6608 -0.6625
vn 0.3463 -0.3454 -0.8722
vn 0.6620 -0.3516 -0.6619
vn 0.5772 -0.5761 0.5788
vn 0.6611 -0.3514 0.6629
vn 0.3458 -0.3452 0.8725
vn 0.3522 -0.6605 0.6630
vn 0.7062 -0.0000 0.7080
vn 0.3475 -0.0000 0.9377
vn -0.0001 -0.0000 1.0000
vn -0.0001 -0.3473 0.9378
vn -0.0001 -0.7061 0.7082
vn 0.5771 0.5761 0.5788
vn 0.3522 0.6606 0.6630
vn 0.3458 0.3452 0.8725
vn 0.6611 0.3514 0.6629
vn -0.0001 0.7061 0.7081
vn -0.0001 0.3473 0.9378
vn -0.5778 0.5765 0.5778
vn -0.6620 0.3517 0.6619
vn -0.3462 0.3455 0.8722
vn -0.3526 0.6609 0.6625
vn -0.7072 -0.0000 0.7070
vn -0.3480 -0.0000 0.9375
vn -0.5777 -0.5765 0.5778
vn -0.3525 -0.6609 0.6625
vn -0.3462 -0.3455 0.8722
vn -0.6620 -0.3517 0.6619
vn -0.8724 -0.3458 0.3456
vn -0.6624 -0.6612 0.3522
vn -0.9377 -0.0000 0.3473
vn -1.0000 -0.0000 -0.0016
vn -0.9376 -0.3477 -0.0015
vn -0.7077 -0.7065 -0.0010
vn -0.6624 0.6612 0.3522
vn -0.8724 0.3458 0.3456
vn -0.7077 0.7065 -0.0010
vn -0.9376 0.3476 -0.0015
vn -0.8716 0.3454 -0.3479
vn -0.6620 0.6607 -0.3539
vn -0.9368 0.0000 -0.3499
vn -0.6620 -0.6607 -0.3539
vn -0.8716 -0.3454 -0.3479
vn 0.3466 -0.8713 0.3475
vn 0.6620 -0.6608 0.3537
vn -0.0000 -0.9370 0.3492
vn 0.0000 -1.0000 0.0000
vn 0.3488 -0.9372 0.0005
vn 0.7077 -0.7065 0.0008
vn -0.3467 -0.8715 0.3467
vn -0.3488 -0.9372 -0.0005
vn -0.3466 -0.8712 -0.3476
vn 0.0001 -0.9371 -0.3492
vn 0.6625 -0.6611 -0.3523
vn 0.3468 -0.8715 -0.3468
vn 0.8723 -0.3457 -0.3459
vn 0.9376 0.0000 -0.3477
vn 1.0000 -0.0000 0.0011
vn 0.9376 -0.3476 0.0010
vn 0.6624 0.6611 -0.3524
vn 0.8723 0.3457 -0.3459
vn 0.7077 0.7065 0.0008
vn 0.9376 0.3477 0.0010
vn 0.8716 0.3455 0.3476
vn 0.6619 0.6608 0.3537
vn 0.9369 -0.0000 0.3495
vn 0.8716 -0.3455 0.3476
vn -0.3468 0.8715 0.3467
vn -0.0001 0.9371 0.3492
vn -0.0000 1.0000 -0.0000
vn -0.3488 0.9372 -0.0005
vn 0.3466 0.8713 0.3475
vn 0.3488 0.9372 0.0004
vn 0.3468 0.8715 -0.3468
vn 0.0000 0.9370 -0.3492
vn -0.3466 0.8712 -0.3476
# 98 vertex normals

vt 0.0000 1.0000 0.0000
vt 0.0000 0.7500 0.0000
vt 0.2500 0.7500 0.0000
vt 0.2500 1.0000 0.0000
vt 0.0000 0.5000 0.0000
vt 0.2500 0.5000 0.0000
vt 0.5000 0.5000 0.0000
vt 0.5000 0.7500 0.0000
vt 0.5000 1.0000 0.0000
vt 0.0000 0.0000 0.0000
vt 0.2500 0.0000 0.0000
vt 0.2500 0.2500 0.0000
vt 0.0000 0.2500 0.0000
vt 0.5000 0.0000 0.0000
vt 0.5000 0.2500 0.0000
vt 1.0000 0.0000 0.0000
vt 1.0000 0.2500 0.0000
vt 0.7500 0.2500 0.0000
vt 0.7500 0.0000 0.0000
vt 1.0000 0.5000 0.0000
vt 0.7500 0.5000 0.0000
vt 1.0000 1.0000 0.0000
vt 0.7500 1.0000 0.0000
vt 0.7500 0.7500 0.0000
vt 1.0000 0.7500 0.0000
# 25 texture coords

g skybox01
usemtl 07___Default
s 1
f 1/1/1 2/2/2 3/3/3 
f 3/3/3 4/4/4 1/1/1 
f 5/5/5 6/6/6 3/3/3 
f 3/3/3 2/2/2 5/5/5 
f 7/7/7 8/8/8 3/3/3 
f 3/3/3 6/6/6 7/7/7 
f 9/9/9 4/4/4 3/3/3 
f 3/3/3 8/8/8 9/9/9 
f 10/10/10 11/11/11 12/12/12 
f 12/12/12 13/13/13 10/10/10 
f 14/14/14 15/15/15 12/12/12 
f 12/12/12 11/11/11 14/14/14 
f 7/7/7 6/6/6 12/12/12 
f 12/12/12 15/15/15 7/7/7 
f 5/5/5 13/13/13 12/12/12 
f 12/12/12 6/6/6 5/5/5 
f 16/16/16 17/17/17 18/18/18 
f 18/18/18 19/19/19 16/16/16 
f 20/20/20 21/21/21 18/18/18 
f 18/18/18 17/17/17 20/20/20 
f 7/7/7 15/15/15 18/18/18 
f 18/18/18 21/21/21 7/7/7 
f 14/14/14 19/19/19 18/18/18 
f 18/18/18 15/15/15 14/14/14 
f 22/22/22 23/23/23 24/24/24 
f 24/24/24 25/25/25 22/22/22 
f 9/9/9 8/8/8 24/24/24 
f 24/24/24 23/23/23 9/9/9 
f 7/7/7 21/21/21 24/24/24 
f 24/24/24 8/8/8 7/7/7 
f 20/20/20 25/25/25 24/24/24 
f 24/24/24 21/21/21 20/20/20 
usemtl skybox3
f 26/1/26 27/2/27 28/3/28 
f 28/3/28 29/4/29 26/1/26 
f 30/5/30 31/6/31 28/3/28 
f 28/3/28 27/2/27 30/5/30 
f 32/7/32 33/8/33 28/3/28 
f 28/3/28 31/6/31 32/7/32 
f 34/9/34 29/4/29 28/3/28 
f 28/3/28 33/8/33 34/9/34 
f 35/10/35 36/11/36 37/12/37 
f 37/12/37 38/13/38 35/10/35 
f 39/14/39 40/15/40 37/12/37 
f 37/12/37 36/11/36 39/14/39 
f 32/7/32 31/6/31 37/12/37 
f 37/12/37 40/15/40 32/7/32 
f 30/5/30 38/13/38 37/12/37 
f 37/12/37 31/6/31 30/5/30 
f 41/16/41 42/17/42 43/18/43 
f 43/18/43 44/19/44 41/16/41 
f 45/20/45 46/21/46 43/18/43 
f 43/18/43 42/17/42 45/20/45 
f 32/7/32 40/15/40 43/18/43 
f 43/18/43 46/21/46 32/7/32 
f 39/14/39 44/19/44 43/18/43 
f 43/18/43 40/15/40 39/14/39 
f 47/22/47 48/23/48 49/24/49 
f 49/24/49 50/25/50 47/22/47 
f 34/9/34 33/8/33 49/24/49 
f 49/24/49 48/23/48 34/9/34 
f 32/7/32 46/21/46 49/24/49 
f 49/24/49 33/8/33 32/7/32 
f 45/20/45 50/25/50 49/24/49 
f 49/24/49 46/21/46 45/20/45 
usemtl skybox2
f 47/1/47 50/2/50 51/3/51 
f 51/3/51 52/4/52 47/1/47 
f 45/5/45 53/6/53 51/3/51 
f 51/3/51 50/2/50 45/5/45 
f 54/7/54 55/8/55 51/3/51 
f 51/3/51 53/6/53 54/7/54 
f 56/9/56 52/4/52 51/3/51 
f 51/3/51 55/8/55 56/9/56 
f 41/10/41 57/11/57 58/12/58 
f 58/12/58 42/13/42 41/10/41 
f 59/14/59 60/15/60 58/12/58 
f 58/12/58 57/11/57 59/14/59 
f 54/7/54 53/6/53 58/12/58 
f 58/12/58 60/15/60 54/7/54 
f 45/5/45 42/13/42 58/12/58 
f 58/12/58 53/6/53 45/5/45 
f 10/16/10 13/17/13 61/18/61 
f 61/18/61 62/19/62 10/16/10 
f 5/20/5 63/21/63 61/18/61 
f 61/18/61 13/17/13 5/20/5 
f 54/7/54 60/15/60 61/18/61 
f 61/18/61 63/21/63 54/7/54 
f 59/14/59 62/19/62 61/18/61 
f 61/18/61 60/15/60 59/14/59 
f 1/22/1 64/23/64 65/24/65 
f 65/24/65 2/25/2 1/22/1 
f 56/9/56 55/8/55 65/24/65 
f 65/24/65 64/23/64 56/9/56 
f 54/7/54 63/21/63 65/24/65 
f 65/24/65 55/8/55 54/7/54 
f 5/20/5 2/25/2 65/24/65 
f 65/24/65 63/21/63 5/20/5 
usemtl skybox6
f 26/1/26 29/2/29 66/3/66 
f 66/3/66 67/4/67 26/1/26 
f 34/5/34 68/6/68 66/3/66 
f 66/3/66 29/2/29 34/5/34 
f 69/7/69 70/8/70 66/3/66 
f 66/3/66 68/6/68 69/7/69 
f 71/9/71 67/4/67 66/3/66 
f 66/3/66 70/8/70 71/9/71 
f 47/10/47 52/11/52 72/12/72 
f 72/12/72 48/13/48 47/10/47 
f 56/14/56 73/15/73 72/12/72 
f 72/12/72 52/11/52 56/14/56 
f 69/7/69 68/6/68 72/12/72 
f 72/12/72 73/15/73 69/7/69 
f 34/5/34 48/13/48 72/12/72 
f 72/12/72 68/6/68 34/5/34 
f 1/16/1 4/17/4 74/18/74 
f 74/18/74 64/19/64 1/16/1 
f 9/20/9 75/21/75 74/18/74 
f 74/18/74 4/17/4 9/20/9 
f 69/7/69 73/15/73 74/18/74 
f 74/18/74 75/21/75 69/7/69 
f 56/14/56 64/19/64 74/18/74 
f 74/18/74 73/15/73 56/14/56 
f 22/22/22 76/23/76 77/24/77 
f 77/24/77 23/25/23 22/22/22 
f 71/9/71 70/8/70 77/24/77 
f 77/24/77 76/23/76 71/9/71 
f 69/7/69 75/21/75 77/24/77 
f 77/24/77 70/8/70 69/7/69 
f 9/20/9 23/25/23 77/24/77 
f 77/24/77 75/21/75 9/20/9 
usemtl skybox4
f 22/1/22 25/2/25 78/3/78 
f 78/3/78 76/4/76 22/1/22 
f 20/5/20 79/6/79 78/3/78 
f 78/3/78 25/2/25 20/5/20 
f 80/7/80 81/8/81 78/3/78 
f 78/3/78 79/6/79 80/7/80 
f 71/9/71 76/4/76 78/3/78 
f 78/3/78 81/8/81 71/9/71 
f 16/10/16 82/11/82 83/12/83 
f 83/12/83 17/13/17 16/10/16 
f 84/14/84 85/15/85 83/12/83 
f 83/12/83 82/11/82 84/14/84 
f 80/7/80 79/6/79 83/12/83 
f 83/12/83 85/15/85 80/7/80 
f 20/5/20 17/13/17 83/12/83 
f 83/12/83 79/6/79 20/5/20 
f 35/16/35 38/17/38 86/18/86 
f 86/18/86 87/19/87 35/16/35 
f 30/20/30 88/21/88 86/18/86 
f 86/18/86 38/17/38 30/20/30 
f 80/7/80 85/15/85 86/18/86 
f 86/18/86 88/21/88 80/7/80 
f 84/14/84 87/19/87 86/18/86 
f 86/18/86 85/15/85 84/14/84 
f 26/22/26 67/23/67 89/24/89 
f 89/24/89 27/25/27 26/22/26 
f 71/9/71 81/8/81 89/24/89 
f 89/24/89 67/23/67 71/9/71 
f 80/7/80 88/21/88 89/24/89 
f 89/24/89 81/8/81 80/7/80 
f 30/20/30 27/25/27 89/24/89 
f 89/24/89 88/21/88 30/20/30 
usemtl skybox5
f 41/1/41 44/2/44 90/3/90 
f 90/3/90 57/4/57 41/1/41 
f 39/5/39 91/6/91 90/3/90 
f 90/3/90 44/2/44 39/5/39 
f 92/7/92 93/8/93 90/3/90 
f 90/3/90 91/6/91 92/7/92 
f 59/9/59 57/4/57 90/3/90 
f 90/3/90 93/8/93 59/9/59 
f 35/10/35 87/11/87 94/12/94 
f 94/12/94 36/13/36 35/10/35 
f 84/14/84 95/15/95 94/12/94 
f 94/12/94 87/11/87 84/14/84 
f 92/7/92 91/6/91 94/12/94 
f 94/12/94 95/15/95 92/7/92 
f 39/5/39 36/13/36 94/12/94 
f 94/12/94 91/6/91 39/5/39 
f 16/16/16 19/17/19 96/18/96 
f 96/18/96 82/19/82 16/16/16 
f 14/20/14 97/21/97 96/18/96 
f 96/18/96 19/17/19 14/20/14 
f 92/7/92 95/15/95 96/18/96 
f 96/18/96 97/21/97 92/7/92 
f 84/14/84 82/19/82 96/18/96 
f 96/18/96 95/15/95 84/14/84 
f 10/22/10 62/23/62 98/24/98 
f 98/24/98 11/25/11 10/22/10 
f 59/9/59 93/8/93 98/24/98 
f 98/24/98 62/23/62 59/9/59 
f 92/7/92 97/21/97 98/24/98 
f 98/24/98 93/8/93 92/7/92 
f 14/20/14 11/25/11 98/24/98 
f 98/24/98 97/21/97 14/20/14 
# 192 faces

