# Blender v2.71 (sub 0) OBJ File: 'HOUSE.blend'
# www.blender.org
mtllib test.mtl
o Cube
v 3.500333 0.011990 -3.174112
v 3.500333 0.011990 1.000000
v -1.000000 0.011990 1.000000
v -1.000000 0.011990 -3.174112
v 3.500334 3.624140 -3.174111
v 3.500332 3.624140 1.000001
v -1.000000 3.624140 1.000000
v -1.000000 3.624140 -3.174112
v 3.500333 4.914342 -1.087055
v -1.000000 4.914342 -1.087056
v 3.500332 3.624140 1.000001
v -1.000000 3.624140 1.000000
v 3.500333 4.914342 -1.087055
v -1.000000 4.914342 -1.087056
v 3.617712 0.019669 -1.487056
v 3.617712 8.295073 -1.487056
v 3.717187 0.019669 -1.474489
v 3.717187 8.295073 -1.474489
v 3.810413 0.019669 -1.437578
v 3.810413 8.295073 -1.437578
v 3.891531 0.019669 -1.378643
v 3.891531 8.295073 -1.378643
v 3.955443 0.019669 -1.301386
v 3.955443 8.295073 -1.301386
v 3.998134 0.019669 -1.210663
v 3.998134 8.295073 -1.210663
v 4.016922 0.019669 -1.112172
v 4.016922 8.295073 -1.112172
v 4.010627 0.019669 -1.012103
v 4.010627 8.295073 -1.012103
v 3.979642 0.019669 -0.916744
v 3.979642 8.295073 -0.916744
v 3.925917 0.019669 -0.832086
v 3.925917 8.295073 -0.832086
v 3.852826 0.019669 -0.763449
v 3.852826 8.295073 -0.763449
v 3.764961 0.019669 -0.715145
v 3.764961 8.295073 -0.715145
v 3.667845 0.019669 -0.690210
v 3.667845 8.295073 -0.690210
v 3.567578 0.019669 -0.690210
v 3.567578 8.295073 -0.690210
v 3.470461 0.019669 -0.715145
v 3.470461 8.295073 -0.715145
v 3.382597 0.019669 -0.763449
v 3.382597 8.295073 -0.763449
v 3.309506 0.019669 -0.832086
v 3.309506 8.295073 -0.832086
v 3.255780 0.019669 -0.916744
v 3.255780 8.295073 -0.916744
v 3.224797 0.019669 -1.012104
v 3.224797 8.295073 -1.012104
v 3.218501 0.019669 -1.112172
v 3.218501 8.295073 -1.112172
v 3.237289 0.019669 -1.210663
v 3.237289 8.295073 -1.210663
v 3.279981 0.019669 -1.301387
v 3.279981 8.295073 -1.301387
v 3.343893 0.019669 -1.378644
v 3.343893 8.295073 -1.378644
v 3.425010 0.019669 -1.437579
v 3.425010 8.295073 -1.437579
v 3.518236 0.019669 -1.474489
v 3.518236 8.295073 -1.474489
v 3.704032 8.295073 -1.423253
v 3.617712 8.295073 -1.434157
v 3.784929 8.295073 -1.391223
v 3.855319 8.295073 -1.340082
v 3.910779 8.295073 -1.273042
v 3.947825 8.295073 -1.194316
v 3.964128 8.295073 -1.108850
v 3.958665 8.295073 -1.022015
v 3.931778 8.295073 -0.939267
v 3.885158 8.295073 -0.865805
v 3.821733 8.295073 -0.806245
v 3.745488 8.295073 -0.764329
v 3.661215 8.295073 -0.742691
v 3.574208 8.295073 -0.742691
v 3.489935 8.295073 -0.764329
v 3.413690 8.295073 -0.806245
v 3.350265 8.295073 -0.865805
v 3.303644 8.295073 -0.939267
v 3.276758 8.295073 -1.022016
v 3.271295 8.295073 -1.108851
v 3.287598 8.295073 -1.194317
v 3.324644 8.295073 -1.273042
v 3.380105 8.295073 -1.340082
v 3.450494 8.295073 -1.391224
v 3.531391 8.295073 -1.423253
v 3.704031 6.740378 -1.423253
v 3.617710 6.740378 -1.434157
v 3.784928 6.740378 -1.391223
v 3.855318 6.740378 -1.340082
v 3.910778 6.740378 -1.273042
v 3.947823 6.740378 -1.194316
v 3.964127 6.740378 -1.108850
v 3.958664 6.740378 -1.022015
v 3.931777 6.740378 -0.939267
v 3.885157 6.740378 -0.865805
v 3.821731 6.740378 -0.806245
v 3.745487 6.740378 -0.764329
v 3.661213 6.740378 -0.742691
v 3.574207 6.740378 -0.742691
v 3.489933 6.740378 -0.764329
v 3.413689 6.740378 -0.806245
v 3.350264 6.740378 -0.865805
v 3.303643 6.740378 -0.939267
v 3.276757 6.740378 -1.022016
v 3.271293 6.740378 -1.108851
v 3.287597 6.740378 -1.194317
v 3.324643 6.740378 -1.273042
v 3.380103 6.740378 -1.340082
v 3.450493 6.740378 -1.391224
v 3.531390 6.740378 -1.423253
v 3.704032 5.136944 -1.423253
v 3.617711 5.136944 -1.434157
v 3.784929 5.136944 -1.391223
v 3.855319 5.136944 -1.340082
v 3.910779 5.136944 -1.273042
v 3.947824 5.136944 -1.194316
v 3.964128 5.136944 -1.108850
v 3.958665 5.136944 -1.022015
v 3.931778 5.136944 -0.939267
v 3.885158 5.136944 -0.865805
v 3.821733 5.136944 -0.806245
v 3.745488 5.136944 -0.764329
v 3.661214 5.136944 -0.742691
v 3.574208 5.136944 -0.742691
v 3.489934 5.136944 -0.764329
v 3.413690 5.136944 -0.806245
v 3.350265 5.136944 -0.865805
v 3.303644 5.136944 -0.939267
v 3.276758 5.136944 -1.022016
v 3.271295 5.136944 -1.108851
v 3.287598 5.136944 -1.194317
v 3.324644 5.136944 -1.273042
v 3.380104 5.136944 -1.340082
v 3.450494 5.136944 -1.391224
v 3.531391 5.136944 -1.423253
vt 0.001846 0.988974
vt 0.001641 0.988703
vt 0.005390 0.020693
vt 0.001428 0.988568
vt 0.001211 0.988570
vt 0.005696 0.022138
vt 0.000997 0.988704
vt 0.005870 0.022429
vt 0.000790 0.988981
vt 0.006049 0.022432
vt 0.000596 0.989389
vt 0.006226 0.022147
vt 0.000419 0.989940
vt 0.006395 0.021574
vt 0.000268 0.990623
vt 0.000143 0.991450
vt 0.006678 0.019563
vt 0.000054 0.992417
vt 0.006779 0.018125
vt 0.000008 0.993527
vt 0.006843 0.016400
vt 0.000018 0.994789
vt 0.000115 0.996224
vt 0.006835 0.012085
vt 0.000406 0.997894
vt 0.001273 0.999992
vt 0.006598 0.006620
vt 0.002159 0.997901
vt 0.006376 0.003457
vt 0.002467 0.996220
vt 0.006075 0.000008
vt 0.002576 0.994780
vt 0.005741 0.003447
vt 0.002596 0.993516
vt 0.002559 0.992407
vt 0.005307 0.009472
vt 0.002474 0.991437
vt 0.002357 0.990613
vt 0.005141 0.014357
vt 0.002210 0.989929
vt 0.001764 0.996116
vt 0.001323 0.992363
vt 0.001329 0.992327
vt 0.002037 0.989383
vt 0.005272 0.019539
vt 0.005187 0.018098
vt 0.001535 0.988899
vt 0.001391 0.988766
vt 0.001246 0.988766
vt 0.001102 0.988903
vt 0.000965 0.989169
vt 0.000841 0.989573
vt 0.000735 0.990108
vt 0.000653 0.990781
vt 0.000599 0.991585
vt 0.000581 0.992527
vt 0.000606 0.993605
vt 0.000680 0.994811
vt 0.000813 0.996118
vt 0.001017 0.997421
vt 0.001282 0.998335
vt 0.001559 0.997416
vt 0.001907 0.994807
vt 0.001991 0.993597
vt 0.002026 0.992516
vt 0.002017 0.991576
vt 0.001969 0.990770
vt 0.001892 0.990100
vt 0.001790 0.989566
vt 0.001669 0.989166
vt 0.001338 0.992145
vt 0.001311 0.992188
vt 0.001296 0.992022
vt 0.005534 0.021559
vt 0.006548 0.020712
vt 0.006864 0.014386
vt 0.006749 0.009496
vt 0.005487 0.006602
vt 0.005194 0.012057
vt 0.005141 0.016371
vt 0.000000 0.000000
vt -1.279173 1.817523
vt 0.517661 3.179803
vt 2.257603 1.780707
vt 2.258964 1.756366
vt 0.516699 3.176580
vt -1.277683 1.821162
vt 2.248245 -1.633617
vt 2.318364 1.881239
vt -1.290216 1.909620
vt -1.303612 1.926034
vt 2.287806 1.847873
vt 2.278747 -1.710770
vt 2.284837 -1.811890
vt -1.285216 -1.780128
vt -1.274377 -1.792257
vt 2.292473 -1.799567
vt -1.305968 -1.737129
vt -1.295538 -1.771062
vt -0.952827 -0.959808
vt 1.945781 -0.940675
vt 1.945781 0.512462
vt 1.945781 1.966388
vt -0.952827 1.947255
vt -0.952827 0.494117
vt -0.952827 0.493330
vt 1.952088 0.494117
vn 0.125300 0.000000 -0.992100
vn 0.368100 0.000000 -0.929800
vn 0.587800 0.000000 -0.809000
vn 0.770500 0.000000 -0.637400
vn 0.904800 0.000000 -0.425800
vn 0.982300 0.000000 -0.187400
vn 0.998000 0.000000 0.062800
vn 0.951100 0.000000 0.309000
vn 0.844300 0.000000 0.535800
vn 0.684500 0.000000 0.729000
vn 0.481800 0.000000 0.876300
vn 0.248700 0.000000 0.968600
vn -0.000000 0.000000 1.000000
vn -0.248700 0.000000 0.968600
vn -0.481800 0.000000 0.876300
vn -0.684500 0.000000 0.729000
vn -0.844300 0.000000 0.535800
vn -0.951100 0.000000 0.309000
vn -0.998000 0.000000 0.062800
vn -0.982300 0.000000 -0.187400
vn -0.904800 0.000000 -0.425800
vn -0.770500 0.000000 -0.637400
vn -0.587800 0.000000 -0.809000
vn 0.951100 -0.000000 -0.309000
vn -0.125300 0.000000 -0.992100
vn -0.368100 0.000000 -0.929800
vn 0.000000 1.000000 0.000000
vn 0.587800 0.000000 0.809000
vn -0.998000 0.000000 -0.062800
vn -0.904800 0.000000 0.425800
vn 0.684500 -0.000000 -0.729000
vn 0.125300 -0.000000 0.992100
vn -0.587800 0.000000 0.809000
vn 0.248700 -0.000000 -0.968600
vn -0.125300 0.000000 0.992100
vn -0.248700 0.000000 -0.968600
vn 0.904800 -0.000000 0.425800
vn -0.684500 0.000000 -0.729000
vn 0.998000 -0.000000 -0.062800
vn -0.951100 0.000000 -0.309000
vn 0.844300 -0.000000 -0.535800
vn -0.982300 0.000000 0.187400
vn -0.770500 0.000000 0.637400
vn 0.481800 -0.000000 -0.876300
vn 0.368100 -0.000000 0.929800
vn -0.368100 0.000000 0.929800
vn 0.000000 -0.000000 -1.000000
vn 0.770500 -0.000000 0.637400
vn -0.481800 0.000000 -0.876300
vn 0.982300 -0.000000 0.187400
vn -0.844300 0.000000 -0.535800
vn 0.000000 -1.000000 0.000000
vn 1.000000 -0.000000 0.000000
vn -1.000000 0.000000 -0.000000
vn 0.000000 0.850600 -0.525800
vn -0.000000 0.850600 0.525800
usemtl Material
s off
f 16/1/1 18/2/1 17/3/1
f 17/3/2 18/2/2 20/4/2
f 20/4/3 22/5/3 21/6/3
f 22/5/4 24/7/4 23/8/4
f 23/8/5 24/7/5 26/9/5
f 25/10/6 26/9/6 28/11/6
f 27/12/7 28/11/7 30/13/7
f 29/14/8 30/13/8 32/15/8
f 32/15/9 34/16/9 33/17/9
f 33/17/10 34/16/10 36/18/10
f 35/19/11 36/18/11 38/20/11
f 37/21/12 38/20/12 40/22/12
f 40/22/13 42/23/13 41/24/13
f 41/24/14 42/23/14 44/25/14
f 44/25/15 46/26/15 45/27/15
f 46/26/16 48/28/16 47/29/16
f 47/29/17 48/28/17 50/30/17
f 49/31/18 50/30/18 52/32/18
f 51/33/19 52/32/19 54/34/19
f 54/34/20 56/35/20 55/36/20
f 55/36/21 56/35/21 58/37/21
f 58/37/22 60/38/22 59/39/22
f 59/39/23 60/38/23 62/40/23
f 82/41/24 107/42/24 108/43/24
f 64/44/25 16/1/25 15/45/25
f 62/40/26 64/44/26 63/46/26
f 65/47/27 18/2/27 16/1/27
f 67/48/27 20/4/27 18/2/27
f 67/48/27 68/49/27 22/5/27
f 69/50/27 24/7/27 22/5/27
f 69/50/27 70/51/27 26/9/27
f 71/52/27 28/11/27 26/9/27
f 71/52/27 72/53/27 30/13/27
f 73/54/27 32/15/27 30/13/27
f 73/54/27 74/55/27 34/16/27
f 75/56/27 36/18/27 34/16/27
f 75/56/27 76/57/27 38/20/27
f 77/58/27 40/22/27 38/20/27
f 78/59/27 42/23/27 40/22/27
f 78/59/27 79/60/27 44/25/27
f 80/61/27 46/26/27 44/25/27
f 81/62/27 48/28/27 46/26/27
f 81/62/27 82/41/27 50/30/27
f 83/63/27 52/32/27 50/30/27
f 84/64/27 54/34/27 52/32/27
f 85/65/27 56/35/27 54/34/27
f 86/66/27 58/37/27 56/35/27
f 87/67/27 60/38/27 58/37/27
f 87/67/27 88/68/27 62/40/27
f 89/69/27 64/44/27 62/40/27
f 66/70/27 16/1/27 64/44/27
f 112/71/28 137/72/28 138/72/28
f 71/52/29 96/71/29 97/71/29
f 69/50/30 94/73/30 95/73/30
f 80/61/31 105/42/31 106/42/31
f 89/69/32 114/71/32 91/73/32
f 67/48/33 92/73/33 93/73/33
f 78/59/34 103/42/34 104/42/34
f 87/67/28 112/71/28 113/71/28
f 65/47/35 66/70/35 91/73/35
f 76/57/36 101/43/36 102/43/36
f 85/65/37 110/72/37 111/72/37
f 74/55/38 99/72/38 100/72/38
f 83/63/39 108/43/39 109/43/39
f 72/53/40 97/71/40 98/71/40
f 81/62/41 106/42/41 107/42/41
f 70/51/42 95/73/42 96/71/42
f 69/50/43 68/49/43 93/73/43
f 79/60/44 104/42/44 105/42/44
f 88/68/45 113/71/45 114/71/45
f 65/47/46 90/73/46 92/73/46
f 77/58/47 102/43/47 103/42/47
f 87/67/48 86/66/48 111/72/48
f 75/56/49 100/72/49 101/43/49
f 85/65/50 84/64/50 109/43/50
f 73/54/51 98/71/51 99/72/51
f 121/72/27 136/72/27 128/72/27
f 91/73/35 116/72/35 115/72/35
f 101/43/36 126/72/36 127/72/36
f 110/72/37 135/72/37 136/72/37
f 99/72/38 124/72/38 125/72/38
f 108/43/39 133/72/39 134/72/39
f 97/71/40 122/72/40 123/72/40
f 106/42/41 131/72/41 132/72/41
f 95/73/42 120/72/42 121/72/42
f 93/73/43 118/72/43 119/72/43
f 104/42/44 129/72/44 130/72/44
f 113/71/45 138/72/45 139/72/45
f 90/73/46 115/72/46 117/72/46
f 102/43/47 127/72/47 128/72/47
f 111/72/48 136/72/48 137/72/48
f 100/72/49 125/72/49 126/72/49
f 109/43/50 134/72/50 135/72/50
f 98/71/51 123/72/51 124/72/51
f 107/42/24 132/72/24 133/72/24
f 96/71/29 121/72/29 122/72/29
f 94/73/30 119/72/30 120/72/30
f 105/42/31 130/72/31 131/72/31
f 114/71/32 139/72/32 116/72/32
f 92/73/33 117/72/33 118/72/33
f 104/42/34 103/42/34 128/72/34
f 15/45/1 16/1/1 17/3/1
f 19/74/2 17/3/2 20/4/2
f 19/74/3 20/4/3 21/6/3
f 21/6/4 22/5/4 23/8/4
f 25/10/5 23/8/5 26/9/5
f 27/12/6 25/10/6 28/11/6
f 29/14/7 27/12/7 30/13/7
f 31/75/8 29/14/8 32/15/8
f 31/75/9 32/15/9 33/17/9
f 35/19/10 33/17/10 36/18/10
f 37/21/11 35/19/11 38/20/11
f 39/76/12 37/21/12 40/22/12
f 39/76/13 40/22/13 41/24/13
f 43/77/14 41/24/14 44/25/14
f 43/77/15 44/25/15 45/27/15
f 45/27/16 46/26/16 47/29/16
f 49/31/17 47/29/17 50/30/17
f 51/33/18 49/31/18 52/32/18
f 53/78/19 51/33/19 54/34/19
f 53/78/20 54/34/20 55/36/20
f 57/79/21 55/36/21 58/37/21
f 57/79/22 58/37/22 59/39/22
f 61/80/23 59/39/23 62/40/23
f 83/63/24 82/41/24 108/43/24
f 63/46/25 64/44/25 15/45/25
f 61/80/26 62/40/26 63/46/26
f 65/47/27 67/48/27 18/2/27
f 66/70/27 65/47/27 16/1/27
f 20/4/27 67/48/27 22/5/27
f 68/49/27 69/50/27 22/5/27
f 24/7/27 69/50/27 26/9/27
f 70/51/27 71/52/27 26/9/27
f 28/11/27 71/52/27 30/13/27
f 72/53/27 73/54/27 30/13/27
f 32/15/27 73/54/27 34/16/27
f 74/55/27 75/56/27 34/16/27
f 36/18/27 75/56/27 38/20/27
f 76/57/27 77/58/27 38/20/27
f 77/58/27 78/59/27 40/22/27
f 42/23/27 78/59/27 44/25/27
f 79/60/27 80/61/27 44/25/27
f 80/61/27 81/62/27 46/26/27
f 48/28/27 81/62/27 50/30/27
f 82/41/27 83/63/27 50/30/27
f 83/63/27 84/64/27 52/32/27
f 84/64/27 85/65/27 54/34/27
f 85/65/27 86/66/27 56/35/27
f 86/66/27 87/67/27 58/37/27
f 60/38/27 87/67/27 62/40/27
f 88/68/27 89/69/27 62/40/27
f 89/69/27 66/70/27 64/44/27
f 113/71/28 112/71/28 138/72/28
f 72/53/29 71/52/29 97/71/29
f 70/51/30 69/50/30 95/73/30
f 81/62/31 80/61/31 106/42/31
f 66/70/32 89/69/32 91/73/32
f 68/49/33 67/48/33 93/73/33
f 79/60/34 78/59/34 104/42/34
f 88/68/28 87/67/28 113/71/28
f 90/73/35 65/47/35 91/73/35
f 77/58/36 76/57/36 102/43/36
f 86/66/37 85/65/37 111/72/37
f 75/56/38 74/55/38 100/72/38
f 84/64/39 83/63/39 109/43/39
f 73/54/40 72/53/40 98/71/40
f 82/41/41 81/62/41 107/42/41
f 71/52/42 70/51/42 96/71/42
f 94/73/43 69/50/43 93/73/43
f 80/61/44 79/60/44 105/42/44
f 89/69/45 88/68/45 114/71/45
f 67/48/46 65/47/46 92/73/46
f 78/59/47 77/58/47 103/42/47
f 112/71/48 87/67/48 111/72/48
f 76/57/49 75/56/49 101/43/49
f 110/72/50 85/65/50 109/43/50
f 74/55/51 73/54/51 99/72/51
f 117/72/27 115/72/27 116/72/27
f 138/72/27 137/72/27 139/72/27
f 136/72/27 116/72/27 137/72/27
f 136/72/27 135/72/27 134/72/27
f 121/72/27 127/72/27 126/72/27
f 102/43/36 101/43/36 127/72/36
f 128/72/27 131/72/27 129/72/27
f 123/72/27 121/72/27 126/72/27
f 124/72/27 123/72/27 125/72/27
f 122/72/27 121/72/27 123/72/27
f 136/72/27 133/72/27 131/72/27
f 123/72/27 126/72/27 125/72/27
f 116/72/27 119/72/27 117/72/27
f 137/72/27 116/72/27 139/72/27
f 133/72/27 132/72/27 131/72/27
f 131/72/27 128/72/27 136/72/27
f 136/72/27 134/72/27 133/72/27
f 128/72/27 127/72/27 121/72/27
f 119/72/27 118/72/27 117/72/27
f 136/72/27 121/72/27 119/72/27
f 116/72/27 136/72/27 119/72/27
f 90/73/35 91/73/35 115/72/35
f 131/72/27 130/72/27 129/72/27
f 120/72/27 119/72/27 121/72/27
f 111/72/37 110/72/37 136/72/37
f 100/72/38 99/72/38 125/72/38
f 109/43/39 108/43/39 134/72/39
f 98/71/40 97/71/40 123/72/40
f 107/42/41 106/42/41 132/72/41
f 96/71/42 95/73/42 121/72/42
f 94/73/43 93/73/43 119/72/43
f 105/42/44 104/42/44 130/72/44
f 114/71/45 113/71/45 139/72/45
f 92/73/46 90/73/46 117/72/46
f 103/42/47 102/43/47 128/72/47
f 112/71/48 111/72/48 137/72/48
f 101/43/49 100/72/49 126/72/49
f 110/72/50 109/43/50 135/72/50
f 99/72/51 98/71/51 124/72/51
f 108/43/24 107/42/24 133/72/24
f 97/71/29 96/71/29 122/72/29
f 95/73/30 94/73/30 120/72/30
f 106/42/31 105/42/31 131/72/31
f 91/73/32 114/71/32 116/72/32
f 93/73/33 92/73/33 118/72/33
f 129/72/34 104/42/34 128/72/34
usemtl Material_NONE
f 2/81/52 3/81/52 4/81/52
f 10/81/13 14/81/13 13/81/13
f 6/81/13 11/81/13 12/81/13
f 7/81/13 12/81/13 14/81/13
f 9/81/13 13/81/13 11/81/13
f 45/81/52 47/81/52 27/81/52
f 1/81/52 2/81/52 4/81/52
f 9/81/13 10/81/13 13/81/13
f 7/81/13 6/81/13 12/81/13
f 10/81/13 7/81/13 14/81/13
f 6/81/13 9/81/13 11/81/13
f 27/81/52 37/81/52 39/81/52
f 21/81/52 23/81/52 19/81/52
f 35/81/52 27/81/52 31/81/52
f 57/81/52 63/81/52 15/81/52
f 33/81/52 35/81/52 31/81/52
f 37/81/52 27/81/52 35/81/52
f 41/81/52 27/81/52 39/81/52
f 41/81/52 43/81/52 45/81/52
f 47/81/52 49/81/52 51/81/52
f 53/81/52 47/81/52 51/81/52
f 53/81/52 55/81/52 57/81/52
f 61/81/52 63/81/52 59/81/52
f 15/81/52 17/81/52 27/81/52
f 23/81/52 25/81/52 27/81/52
f 27/81/52 29/81/52 31/81/52
f 27/81/52 47/81/52 53/81/52
f 57/81/52 27/81/52 53/81/52
f 23/81/52 17/81/52 19/81/52
f 17/81/52 23/81/52 27/81/52
f 63/81/52 57/81/52 59/81/52
f 57/81/52 15/81/52 27/81/52
f 27/81/52 41/81/52 45/81/52
usemtl Material.001
f 5/82/53 9/83/53 6/84/53
f 7/85/54 10/86/54 8/87/54
f 2/88/13 6/89/13 7/90/13
f 8/91/47 5/92/47 1/93/47
f 2/94/53 1/95/53 5/82/53
f 4/96/54 3/97/54 7/85/54
f 5/82/53 6/84/53 2/94/53
f 3/98/13 2/88/13 7/90/13
f 7/85/54 8/87/54 4/96/54
f 4/99/47 8/91/47 1/93/47
usemtl Material.002
f 10/100/55 9/101/55 5/102/55
f 13/103/56 14/104/56 12/105/56
f 8/106/55 10/100/55 5/102/55
f 11/107/56 13/103/56 12/105/56
